<svg xmlns="http://www.w3.org/2000/svg" xmlns:xlink="http://www.w3.org/1999/xlink" width="500" zoomAndPan="magnify" viewBox="0 0 375 374.999991" height="500" preserveAspectRatio="xMidYMid meet" version="1.0"><defs><g/><clipPath id="3921ea619a"><path d="M 84.558594 163.515625 L 123.890625 163.515625 L 123.890625 211.476562 L 84.558594 211.476562 Z M 84.558594 163.515625 " clip-rule="nonzero"/></clipPath></defs><g clip-path="url(#3921ea619a)"><path fill="#190894" d="M 123.890625 163.558594 L 123.890625 169.035156 C 123.632812 171.09375 122.023438 172.746094 119.960938 173.136719 L 99.851562 173.136719 C 99.683594 173.121094 99.519531 173.109375 99.351562 173.109375 C 99.183594 173.109375 99.007812 173.121094 98.847656 173.136719 C 96.378906 173.386719 94.449219 175.425781 94.449219 177.914062 C 94.449219 180.5625 96.640625 182.710938 99.351562 182.710938 L 109.363281 182.710938 C 111.714844 182.785156 113.65625 184.445312 114.054688 186.621094 L 114.054688 192.289062 L 99.476562 192.289062 C 99.417969 192.28125 99.367188 192.28125 99.308594 192.28125 C 99.25 192.28125 99.195312 192.28125 99.136719 192.289062 C 96.648438 192.363281 94.640625 194.234375 94.394531 196.605469 C 94.375 196.761719 94.367188 196.929688 94.367188 197.09375 C 94.367188 197.261719 94.375 197.425781 94.394531 197.582031 L 94.394531 207.328125 C 94.128906 209.410156 92.503906 211.070312 90.40625 211.433594 L 84.558594 211.433594 L 84.558594 168.347656 C 84.558594 165.707031 86.769531 163.558594 89.472656 163.558594 Z M 123.890625 163.558594 " fill-opacity="1" fill-rule="nonzero"/></g><g fill="#ffffff" fill-opacity="1"><g transform="translate(104.228986, 237.207949)"><g><path d="M 20.765625 -28.078125 L 20.765625 -22.59375 L 9.3125 -22.59375 L 9.3125 -16.6875 L 17.875 -16.6875 L 17.875 -11.359375 L 9.3125 -11.359375 L 9.3125 0 L 2.484375 0 L 2.484375 -28.078125 Z M 20.765625 -28.078125 "/></g></g></g><g fill="#ffffff" fill-opacity="1"><g transform="translate(126.106815, 237.207949)"><g><path d="M 19.953125 -4.953125 L 9.484375 -4.953125 L 7.796875 0 L 0.640625 0 L 10.796875 -28.078125 L 18.71875 -28.078125 L 28.875 0 L 21.640625 0 Z M 18.203125 -10.234375 L 14.71875 -20.515625 L 11.28125 -10.234375 Z M 18.203125 -10.234375 "/></g></g></g><g fill="#ffffff" fill-opacity="1"><g transform="translate(155.583887, 237.207949)"><g><path d="M 1.3125 -14.078125 C 1.3125 -16.847656 1.910156 -19.320312 3.109375 -21.5 C 4.316406 -23.675781 5.992188 -25.367188 8.140625 -26.578125 C 10.285156 -27.796875 12.71875 -28.40625 15.4375 -28.40625 C 18.769531 -28.40625 21.625 -27.523438 24 -25.765625 C 26.375 -24.003906 27.960938 -21.601562 28.765625 -18.5625 L 21.234375 -18.5625 C 20.679688 -19.726562 19.890625 -20.617188 18.859375 -21.234375 C 17.828125 -21.847656 16.660156 -22.15625 15.359375 -22.15625 C 13.253906 -22.15625 11.546875 -21.421875 10.234375 -19.953125 C 8.929688 -18.492188 8.28125 -16.535156 8.28125 -14.078125 C 8.28125 -11.628906 8.929688 -9.671875 10.234375 -8.203125 C 11.546875 -6.734375 13.253906 -6 15.359375 -6 C 16.660156 -6 17.828125 -6.304688 18.859375 -6.921875 C 19.890625 -7.535156 20.679688 -8.425781 21.234375 -9.59375 L 28.765625 -9.59375 C 27.960938 -6.5625 26.375 -4.171875 24 -2.421875 C 21.625 -0.671875 18.769531 0.203125 15.4375 0.203125 C 12.71875 0.203125 10.285156 -0.398438 8.140625 -1.609375 C 5.992188 -2.828125 4.316406 -4.515625 3.109375 -6.671875 C 1.910156 -8.835938 1.3125 -11.304688 1.3125 -14.078125 Z M 1.3125 -14.078125 "/></g></g></g><g fill="#ffffff" fill-opacity="1"><g transform="translate(186.060863, 237.207949)"><g><path d="M 9.3125 -28.078125 L 9.3125 0 L 2.484375 0 L 2.484375 -28.078125 Z M 9.3125 -28.078125 "/></g></g></g><g fill="#ffffff" fill-opacity="1"><g transform="translate(197.859687, 237.207949)"><g><path d="M 9.3125 -5.28125 L 18.28125 -5.28125 L 18.28125 0 L 2.484375 0 L 2.484375 -28.078125 L 9.3125 -28.078125 Z M 9.3125 -5.28125 "/></g></g></g><g fill="#ffffff" fill-opacity="1"><g transform="translate(216.937787, 237.207949)"><g><path d="M 9.3125 -5.28125 L 18.28125 -5.28125 L 18.28125 0 L 2.484375 0 L 2.484375 -28.078125 L 9.3125 -28.078125 Z M 9.3125 -5.28125 "/></g></g></g><g fill="#ffffff" fill-opacity="1"><g transform="translate(236.015888, 237.207949)"><g><path d="M 9.3125 -28.078125 L 9.3125 0 L 2.484375 0 L 2.484375 -28.078125 Z M 9.3125 -28.078125 "/></g></g></g><g fill="#ffffff" fill-opacity="1"><g transform="translate(247.814711, 237.207949)"><g><path d="M 22.6875 -28.078125 L 22.6875 -22.59375 L 15.234375 -22.59375 L 15.234375 0 L 8.40625 0 L 8.40625 -22.59375 L 0.953125 -22.59375 L 0.953125 -28.078125 Z M 22.6875 -28.078125 "/></g></g></g><g fill="#190894" fill-opacity="1"><g transform="translate(269.978982, 237.650946)"><g><path d="M 18.90625 -20.84375 L 18.90625 0 L 15.484375 0 L 15.484375 -9.125 L 5.671875 -9.125 L 5.671875 0 L 2.25 0 L 2.25 -20.84375 L 5.671875 -20.84375 L 5.671875 -11.90625 L 15.484375 -11.90625 L 15.484375 -20.84375 Z M 18.90625 -20.84375 "/></g></g></g><g fill="#190894" fill-opacity="1"><g transform="translate(291.128955, 237.650946)"><g><path d="M 5.640625 -20.84375 L 5.640625 -7.5625 C 5.640625 -5.976562 6.050781 -4.785156 6.875 -3.984375 C 7.707031 -3.191406 8.863281 -2.796875 10.34375 -2.796875 C 11.84375 -2.796875 13.007812 -3.191406 13.84375 -3.984375 C 14.675781 -4.785156 15.09375 -5.976562 15.09375 -7.5625 L 15.09375 -20.84375 L 18.515625 -20.84375 L 18.515625 -7.625 C 18.515625 -5.914062 18.144531 -4.472656 17.40625 -3.296875 C 16.664062 -2.117188 15.671875 -1.238281 14.421875 -0.65625 C 13.179688 -0.0820312 11.8125 0.203125 10.3125 0.203125 C 8.8125 0.203125 7.445312 -0.0820312 6.21875 -0.65625 C 4.988281 -1.238281 4.015625 -2.117188 3.296875 -3.296875 C 2.578125 -4.472656 2.21875 -5.914062 2.21875 -7.625 L 2.21875 -20.84375 Z M 5.640625 -20.84375 "/></g></g></g><g fill="#190894" fill-opacity="1"><g transform="translate(311.828936, 237.650946)"><g><path d="M 13.40625 -10.703125 C 14.53125 -10.503906 15.484375 -9.914062 16.265625 -8.9375 C 17.046875 -7.957031 17.4375 -6.847656 17.4375 -5.609375 C 17.4375 -4.546875 17.160156 -3.585938 16.609375 -2.734375 C 16.054688 -1.890625 15.257812 -1.222656 14.21875 -0.734375 C 13.175781 -0.242188 11.96875 0 10.59375 0 L 2.25 0 L 2.25 -20.84375 L 10.203125 -20.84375 C 11.617188 -20.84375 12.835938 -20.601562 13.859375 -20.125 C 14.878906 -19.644531 15.648438 -19 16.171875 -18.1875 C 16.691406 -17.382812 16.953125 -16.484375 16.953125 -15.484375 C 16.953125 -14.285156 16.628906 -13.285156 15.984375 -12.484375 C 15.347656 -11.679688 14.488281 -11.085938 13.40625 -10.703125 Z M 5.671875 -12.09375 L 9.90625 -12.09375 C 11.019531 -12.09375 11.890625 -12.347656 12.515625 -12.859375 C 13.148438 -13.367188 13.46875 -14.101562 13.46875 -15.0625 C 13.46875 -16 13.148438 -16.734375 12.515625 -17.265625 C 11.890625 -17.796875 11.019531 -18.0625 9.90625 -18.0625 L 5.671875 -18.0625 Z M 10.296875 -2.796875 C 11.453125 -2.796875 12.359375 -3.070312 13.015625 -3.625 C 13.679688 -4.1875 14.015625 -4.96875 14.015625 -5.96875 C 14.015625 -6.988281 13.660156 -7.796875 12.953125 -8.390625 C 12.253906 -8.992188 11.328125 -9.296875 10.171875 -9.296875 L 5.671875 -9.296875 L 5.671875 -2.796875 Z M 10.296875 -2.796875 "/></g></g></g></svg>