<?xml version="1.0" encoding="UTF-8"?>
<svg id="Camada_1" xmlns="http://www.w3.org/2000/svg" version="1.1" viewBox="0 0 160 160">
  <!-- Generator: Adobe Illustrator 29.7.1, SVG Export Plug-In . SVG Version: 2.1.1 Build 8)  -->
  <defs>
    <style>
      .st0 {
        fill: #1154d9;
      }
    </style>
  </defs>
  <path class="st0" d="M131.27,5.62v17.14c-.58,6.44-4.22,11.61-8.88,12.82h-45.47c-.38-.05-.75-.08-1.14-.08s-.77.03-1.14.08c-5.59.78-9.95,7.17-9.95,14.95,0,8.29,4.95,15.01,11.08,15.01h22.64c5.32.23,9.71,5.42,10.61,12.23v17.74h-32.97c-.13-.03-.25-.03-.38-.03s-.25,0-.38.03c-5.63.23-10.18,6.08-10.73,13.5-.04.49-.06,1.01-.06,1.53s.02,1.04.06,1.53v30.48c-.6,6.51-4.28,11.71-9.02,12.85h-13.22V20.59c0-8.26,4.99-14.98,11.12-14.98h77.83,0Z"/>
</svg>