<svg xmlns="http://www.w3.org/2000/svg" xmlns:xlink="http://www.w3.org/1999/xlink" width="375" zoomAndPan="magnify" viewBox="0 0 281.25 281.249989" height="375" preserveAspectRatio="xMidYMid meet" version="1.0"><defs><clipPath id="ac5295d0d0"><path d="M 72.78125 68.6875 L 207.722656 68.6875 L 207.722656 233.25 L 72.78125 233.25 Z M 72.78125 68.6875 " clip-rule="nonzero"/></clipPath></defs><g clip-path="url(#ac5295d0d0)"><path fill="#2e14ed" d="M 207.722656 68.839844 L 207.722656 87.632812 C 206.84375 94.691406 201.320312 100.367188 194.246094 101.699219 L 125.25 101.699219 C 124.667969 101.648438 124.113281 101.613281 123.527344 101.613281 C 122.949219 101.613281 122.359375 101.648438 121.804688 101.699219 C 113.335938 102.558594 106.71875 109.558594 106.71875 118.101562 C 106.71875 127.183594 114.230469 134.558594 123.527344 134.558594 L 157.882812 134.558594 C 165.957031 134.8125 172.609375 140.507812 173.980469 147.96875 L 173.980469 167.421875 L 123.960938 167.421875 C 123.761719 167.390625 123.585938 167.390625 123.382812 167.390625 C 123.183594 167.390625 123.003906 167.390625 122.800781 167.421875 C 114.265625 167.675781 107.363281 174.089844 106.519531 182.222656 C 106.457031 182.761719 106.433594 183.332031 106.433594 183.902344 C 106.433594 184.472656 106.464844 185.046875 106.519531 185.582031 L 106.519531 219.015625 C 105.613281 226.15625 100.03125 231.851562 92.835938 233.109375 L 72.78125 233.109375 L 72.78125 85.269531 C 72.78125 76.214844 80.359375 68.839844 89.644531 68.839844 Z M 207.722656 68.839844 " fill-opacity="1" fill-rule="nonzero"/></g></svg>